<svg xmlns="http://www.w3.org/2000/svg" width="800" height="500" viewBox="0 0 800 500" fill="none">
  <rect width="800" height="500" fill="#EEF2FF"/>
  <rect x="40" y="40" width="720" height="420" rx="16" fill="#fff" stroke="#C7D2FE" stroke-width="2"/>
  <rect x="40" y="40" width="720" height="48" rx="16" fill="#4F46E5"/>
  <text x="400" y="68" text-anchor="middle" fill="#fff" font-family="system-ui" font-size="14" font-weight="600">Sales Dashboard</text>
  <rect x="80" y="110" width="150" height="90" rx="10" fill="#4F46E5" fill-opacity="0.08"/>
  <rect x="250" y="110" width="150" height="90" rx="10" fill="#4F46E5" fill-opacity="0.08"/>
  <rect x="420" y="110" width="150" height="90" rx="10" fill="#4F46E5" fill-opacity="0.08"/>
  <rect x="590" y="110" width="130" height="90" rx="10" fill="#4F46E5" fill-opacity="0.08"/>
  <rect x="80" y="220" width="400" height="200" rx="10" fill="#F5F3FF"/>
  <polyline points="120,380 180,320 240,340 300,260 360,280 420,200" stroke="#4F46E5" stroke-width="3" fill="none"/>
  <rect x="500" y="220" width="220" height="200" rx="10" fill="#F5F3FF"/>
  <rect x="530" y="260" width="160" height="12" rx="4" fill="#4F46E5" fill-opacity="0.2"/>
  <rect x="530" y="290" width="140" height="12" rx="4" fill="#4F46E5" fill-opacity="0.15"/>
  <rect x="530" y="320" width="120" height="12" rx="4" fill="#4F46E5" fill-opacity="0.1"/>
</svg>
