<svg xmlns="http://www.w3.org/2000/svg" width="800" height="500" viewBox="0 0 800 500" fill="none">
  <rect width="800" height="500" fill="#ECFDF5"/>
  <rect x="40" y="40" width="720" height="420" rx="16" fill="#fff" stroke="#A7F3D0" stroke-width="2"/>
  <rect x="40" y="40" width="720" height="48" rx="16" fill="#059669"/>
  <text x="400" y="68" text-anchor="middle" fill="#fff" font-family="system-ui" font-size="14" font-weight="600">Inventory Control</text>
  <rect x="80" y="110" width="190" height="100" rx="10" fill="#059669" fill-opacity="0.1"/>
  <rect x="100" y="130" width="80" height="24" rx="4" fill="#059669" fill-opacity="0.3"/>
  <rect x="100" y="165" width="120" height="8" rx="4" fill="#CBD5E1"/>
  <rect x="290" y="110" width="190" height="100" rx="10" fill="#059669" fill-opacity="0.1"/>
  <rect x="500" y="110" width="190" height="100" rx="10" fill="#059669" fill-opacity="0.1"/>
  <rect x="80" y="230" width="640" height="200" rx="10" fill="#F0FDF4"/>
  <rect x="100" y="250" width="600" height="12" rx="4" fill="#059669" fill-opacity="0.15"/>
  <rect x="100" y="280" width="600" height="12" rx="4" fill="#059669" fill-opacity="0.1"/>
  <rect x="100" y="310" width="600" height="12" rx="4" fill="#059669" fill-opacity="0.1"/>
  <rect x="100" y="340" width="600" height="12" rx="4" fill="#059669" fill-opacity="0.08"/>
</svg>
