<svg xmlns="http://www.w3.org/2000/svg" width="800" height="500" viewBox="0 0 800 500" fill="none">
  <rect width="800" height="500" fill="#ECFEFF"/>
  <rect x="40" y="40" width="720" height="420" rx="16" fill="#fff" stroke="#A5F3FC" stroke-width="2"/>
  <rect x="40" y="40" width="720" height="48" rx="16" fill="#0891B2"/>
  <text x="400" y="68" text-anchor="middle" fill="#fff" font-family="system-ui" font-size="14" font-weight="600">Order Management</text>
  <rect x="80" y="110" width="640" height="40" rx="8" fill="#F0FDFA"/>
  <rect x="100" y="125" width="80" height="10" rx="3" fill="#0891B2" fill-opacity="0.3"/>
  <rect x="200" y="125" width="60" height="10" rx="3" fill="#CBD5E1"/>
  <rect x="280" y="125" width="60" height="10" rx="3" fill="#CBD5E1"/>
  <rect x="80" y="170" width="640" height="48" rx="8" fill="#fff" stroke="#E2E8F0"/>
  <rect x="100" y="188" width="100" height="12" rx="4" fill="#0891B2" fill-opacity="0.2"/>
  <rect x="250" y="188" width="80" height="12" rx="4" fill="#E2E8F0"/>
  <rect x="400" y="188" width="60" height="12" rx="4" fill="#22C55E" fill-opacity="0.3"/>
  <rect x="80" y="230" width="640" height="48" rx="8" fill="#fff" stroke="#E2E8F0"/>
  <rect x="80" y="290" width="640" height="48" rx="8" fill="#fff" stroke="#E2E8F0"/>
  <rect x="80" y="350" width="640" height="48" rx="8" fill="#fff" stroke="#E2E8F0"/>
</svg>
