<svg xmlns="http://www.w3.org/2000/svg" width="800" height="500" viewBox="0 0 800 500" fill="none">
  <rect width="800" height="500" fill="#FFF7ED"/>
  <rect x="40" y="40" width="720" height="420" rx="16" fill="#fff" stroke="#FED7AA" stroke-width="2"/>
  <rect x="40" y="40" width="720" height="48" rx="16" fill="#EA580C"/>
  <rect x="40" y="72" width="720" height="16" fill="#EA580C"/>
  <text x="400" y="68" text-anchor="middle" fill="#fff" font-family="system-ui" font-size="14" font-weight="600">services.rekart.ae</text>
  <rect x="80" y="110" width="180" height="320" rx="10" fill="#FFF7ED"/>
  <rect x="100" y="130" width="140" height="10" rx="4" fill="#EA580C" fill-opacity="0.3"/>
  <rect x="100" y="155" width="120" height="8" rx="4" fill="#FDBA74"/>
  <rect x="100" y="175" width="120" height="8" rx="4" fill="#FDBA74"/>
  <rect x="100" y="195" width="120" height="8" rx="4" fill="#FDBA74"/>
  <rect x="280" y="110" width="440" height="150" rx="10" fill="#FFF7ED"/>
  <rect x="300" y="130" width="200" height="14" rx="4" fill="#EA580C" fill-opacity="0.2"/>
  <rect x="300" y="160" width="380" height="8" rx="4" fill="#E2E8F0"/>
  <rect x="300" y="180" width="340" height="8" rx="4" fill="#E2E8F0"/>
  <rect x="280" y="280" width="210" height="150" rx="10" fill="#EA580C" fill-opacity="0.08"/>
  <rect x="510" y="280" width="210" height="150" rx="10" fill="#EA580C" fill-opacity="0.08"/>
</svg>
